# xmcd
#
# Track frame offsets:
#	150
#	14400
#	27900
#	41475
#	56625
#	69300
#	83025
#	94800
#	109200
#	120825
#	133800
#	148800
#	161700
#	175275
#
# Disc length: 2536 seconds
#
# Revision: 1
# Processed by: cddbd v1.5.2PL0 Copyright (c) Steve Scherf et al.
# Submitted via: EZCDAudioConverter 1.0.4.1
#
DISCID=bd09e60e
DTITLE=Various Artist - The Roots Of Robert Johnson
DYEAR=1900
DGENRE=Blues
TTITLE0=Devil Got My Woman
TTITLE1=Milk Cow Blues
TTITLE2=When The Sun Goes Down
TTITLE3=My Black Mama Part 1
TTITLE4=Charlie Patton - Revenue Man Blues
TTITLE5=Red River Blues
TTITLE6=Hambone Willie Newbern - Roll And Tumble Blues
TTITLE7=Life Saver Blues
TTITLE8=Skip James - 22-20 Blues
TTITLE9=Kokomo Blues
TTITLE10=Sitting On Top Of The World
TTITLE11=Preachin' The Blues Part 1
TTITLE12=Casey Bill Weldon - Go Ahead, Buddy
TTITLE13=Johnnie Temple - Lead Pencil Blues
EXTD=
EXTT0=
EXTT1=
EXTT2=
EXTT3=
EXTT4=
EXTT5=
EXTT6=
EXTT7=
EXTT8=
EXTT9=
EXTT10=
EXTT11=
EXTT12=
EXTT13=
PLAYORDER=
